<?xml version="1.0" standalone="no"?>
<!DOCTYPE svg PUBLIC "-//W3C//DTD SVG 1.1//EN" "http://www.w3.org/Graphics/SVG/1.1/DTD/svg11.dtd" >
<svg xmlns="http://www.w3.org/2000/svg">
<metadata>Generated by IcoMoon</metadata>
<defs>
<font id="TramitesGOB" horiz-adv-x="1024">
<font-face units-per-em="1024" ascent="960" descent="-64" />
<missing-glyph horiz-adv-x="1024" />
<glyph unicode="&#x20;" horiz-adv-x="512" d="" />
<glyph unicode="&#xa900;" horiz-adv-x="907" d="M6.725 664.721v-434.054c0-25.065 13.45-48.296 34.847-60.523l375.976-217.027c22.008-12.227 48.296-12.227 70.304 0l375.976 217.027c21.397 12.227 34.847 35.458 34.847 60.523v434.054c0 25.065-13.45 48.296-34.847 60.523l-375.976 217.027c-22.008 12.227-48.296 12.227-70.304 0l-375.365-216.416c-22.008-12.838-35.458-36.069-35.458-61.134z" />
<glyph unicode="&#xa901;" horiz-adv-x="907" d="M456.062 345.6c18.34 0 33.013 14.672 33.013 33.013s-14.672 33.013-33.013 33.013c-18.34 0-33.013-14.672-33.013-33.013s14.672-33.013 33.013-33.013zM456.062 396.341c9.781 0 17.729-7.947 17.729-17.729s-7.947-17.729-17.729-17.729c-9.781 0-17.729 7.947-17.729 17.729-0.611 9.781 7.336 17.729 17.729 17.729z" />
<glyph unicode="&#xa902;" horiz-adv-x="907" d="M602.173 588.915c29.956 0 54.41 24.454 54.41 54.41s-24.454 54.41-54.41 54.41c-29.956 0-54.41-24.454-54.41-54.41-0.611-29.956 23.842-54.41 54.41-54.41zM602.173 682.45c22.008 0 39.737-17.729 39.737-39.737s-17.729-39.737-39.737-39.737c-22.008 0-39.737 17.729-39.737 39.737s17.729 39.737 39.737 39.737z" />
<glyph unicode="&#xa903;" horiz-adv-x="907" d="M682.87 504.549c-4.279 0-7.336-3.668-7.336-7.336v-103.317c0-2.445-2.445-4.891-4.891-4.891h-18.34v133.273c0 4.279-3.668 7.336-7.336 7.336-4.279 0-7.336-3.668-7.336-7.336v-320.344c0-2.445-2.445-4.891-4.891-4.891h-17.729c-2.445 0-4.891 2.445-4.891 4.891v120.435c0 4.279-3.668 7.336-7.336 7.336-4.279 0-7.336-3.668-7.336-7.336v-120.435c0-2.445-2.445-4.891-4.891-4.891h-17.729c-2.445 0-4.891 2.445-4.891 4.891v320.344c0 4.279-3.668 7.336-7.336 7.336s-7.336-3.668-7.336-7.336v-133.273h-18.34c-2.445 0-4.891 2.445-4.891 4.891v128.382c0 25.065 20.174 45.239 45.239 45.239h56.855c25.065 0 45.239-20.174 45.239-45.239 0-4.279 3.668-7.336 7.336-7.336s7.336 3.668 7.336 7.336c0 33.013-26.899 59.912-59.912 59.912h-56.855c-33.013 0-59.912-26.899-59.912-59.912v-128.382c0-11.004 9.17-20.174 20.174-20.174h18.34v-171.787c0-11.004 9.17-20.174 20.174-20.174h17.729c4.891 0 9.17 1.834 12.227 4.279 3.668-2.445 7.947-4.279 12.227-4.279h17.729c11.004 0 20.174 9.17 20.174 20.174v171.787h18.34c11.004 0 20.174 9.17 20.174 20.174v103.317c-2.445 4.279-5.502 7.336-9.781 7.336z" />
<glyph unicode="&#xa904;" horiz-adv-x="907" d="M297.724 542.453c29.956 0 54.41 24.454 54.41 54.41s-24.454 54.41-54.41 54.41c-29.956 0-54.41-24.454-54.41-54.41s24.454-54.41 54.41-54.41zM297.724 636.599c22.008 0 39.737-17.729 39.737-39.737s-17.729-39.737-39.737-39.737c-22.008 0-39.737 17.729-39.737 39.737s17.729 39.737 39.737 39.737z" />
<glyph unicode="&#xa905;" horiz-adv-x="907" d="M322.789 535.116h-49.519c-29.344 0-53.798-23.842-53.798-53.798v-113.099c0-10.393 8.559-18.34 18.34-18.34v0l-4.891-47.073c0-1.834 0.611-4.279 1.834-6.113s3.668-2.445 5.502-2.445h12.838v-94.147c0-10.393 8.559-18.34 18.34-18.34h15.284c4.279 0 7.947 1.223 11.004 3.668 3.057-2.445 6.725-3.668 11.004-3.668h15.284c10.393 0 18.34 8.559 18.34 18.34v41.571c0 4.279-3.668 7.336-7.336 7.336s-7.336-3.668-7.336-7.336v-41.571c0-1.834-1.223-3.668-3.668-3.668h-15.284c-1.834 0-3.668 1.223-3.668 3.668v81.309c0 4.279-3.668 7.336-7.336 7.336-4.279 0-7.336-3.668-7.336-7.336v-80.697c0-1.834-1.223-3.668-3.668-3.668h-15.284c-1.834 0-3.668 1.223-3.668 3.668v93.536h59.3v-28.122c0-4.279 3.668-7.336 7.336-7.336s7.947 3.668 7.947 7.336v28.122h12.838c2.445 0 4.279 0.611 5.502 2.445s1.834 3.668 1.834 6.113l-5.502 47.685c10.393 0 18.34 8.559 18.34 18.34v112.487c1.223 29.956-23.231 53.798-52.576 53.798zM361.304 368.831v0c0-1.834-1.223-3.057-3.668-3.057h-1.834l-13.45 125.325c-0.611 4.279-4.279 7.336-8.559 6.725s-7.336-4.279-6.725-8.559l19.563-180.346h-97.815l19.563 180.346c0.611 4.279-2.445 7.947-6.725 8.559s-7.947-2.445-8.559-6.725l-14.061-125.937h-1.834c-1.834 0-3.057 1.223-3.668 3.057v113.099c0 21.397 17.118 38.515 38.515 38.515h49.519c21.397 0 38.515-17.118 38.515-38.515l1.223-112.487z" />
<glyph unicode="&#xa906;" horiz-adv-x="907" d="M512.917 370.665c-5.502 0-10.393-2.445-14.061-6.113l-28.122-29.956h-29.344l-28.122 29.344c-7.947 7.947-20.786 8.559-28.733 0.611s-8.559-20.786-0.611-28.733l32.401-34.847v-100.26c0-11.004 8.559-19.563 19.563-19.563h39.737c11.004 0 19.563 8.559 19.563 19.563v41.571c0 4.279-3.668 7.336-7.336 7.336-4.279 0-7.336-3.668-7.336-7.336v-41.571c0-2.445-1.834-4.891-4.891-4.891h-12.838v64.191c0 4.279-3.668 7.336-7.336 7.336-4.279 0-7.336-3.668-7.336-7.336v-62.968h-12.227c-2.445 0-4.891 1.834-4.891 4.891v102.706c0 1.834-0.611 3.668-1.834 4.891l-34.847 36.681c-1.834 1.834-1.834 5.502 0 7.336s5.502 1.834 7.336 0l30.567-32.401c1.223-1.223 3.668-2.445 5.502-2.445h35.458c1.834 0 4.279 0.611 5.502 2.445l30.567 32.401c1.834 1.834 5.502 2.445 7.336 0 1.834-1.834 2.445-5.502 0-7.336l-34.847-36.681c-1.223-1.223-1.834-3.057-1.834-4.891v-36.069c0-4.279 3.668-7.336 7.336-7.336 4.279 0 7.336 3.668 7.336 7.336v33.624l32.401 34.847c7.947 7.947 7.336 20.786-0.611 28.733-2.445 3.057-7.947 4.891-13.45 4.891z" />
<glyph unicode="&#xa907;" horiz-adv-x="907" d="M6.725 664.721v-434.054c0-25.065 13.45-48.296 34.847-60.523l375.976-217.027c22.008-12.227 48.296-12.227 70.304 0l375.976 217.027c21.397 12.227 34.847 35.458 34.847 60.523v434.054c0 25.065-13.45 48.296-34.847 60.523l-375.976 217.027c-22.008 12.227-48.296 12.227-70.304 0l-375.365-216.416c-22.008-12.838-35.458-36.069-35.458-61.134z" />
<glyph unicode="&#xa908;" horiz-adv-x="907" d="M747.061 341.932l-28.122 28.122c-4.279 4.279-11.616 4.279-16.506 0-4.279-4.279-4.279-11.616 0-16.506l28.122-28.122c2.445-2.445 5.502-3.668 7.947-3.668 3.057 0 6.113 1.223 8.559 3.668 4.891 4.891 4.891 12.227 0 16.506z" />
<glyph unicode="&#xa909;" horiz-adv-x="907" d="M690.207 399.398c-4.279 4.279-11.616 4.279-16.506 0v0c-4.279-4.279-4.279-11.616 0-16.506 2.445-2.445 5.502-3.668 7.947-3.668 3.057 0 6.113 1.223 7.947 3.668 4.891 4.279 4.891 11.616 0.611 16.506z" />
<glyph unicode="&#xa90a;" horiz-adv-x="907" d="M591.169 345.6l112.487 112.487c17.118 17.118 17.118 44.628 0 61.746-6.113 6.113-13.45 9.781-21.397 11.616 2.445 5.502 4.279 12.227 4.279 18.34 0 11.616-4.279 22.62-12.838 31.179-6.725 6.725-14.672 10.393-23.231 12.227 4.891 15.284 1.223 32.401-10.393 44.628-6.725 6.725-14.672 10.393-23.231 12.227 1.223 4.279 2.445 9.17 2.445 13.45 0 11.616-4.279 22.62-12.838 31.179s-19.563 12.838-31.179 12.838c-7.336 0-14.672-1.834-20.786-5.502l-1.223 1.223c-14.672 15.895-35.458 24.454-56.855 24.454h-91.701c-6.725 0-11.616-5.502-11.616-11.616v-15.284c0-6.113 1.223-12.227 3.057-17.729-5.502 2.445-11.004 3.057-17.118 3.057-11.616 0-22.62-4.279-31.179-12.838-12.227-12.227-15.895-29.344-10.393-44.628-8.559-1.223-17.118-5.502-23.231-12.227-8.559-8.559-12.838-19.563-12.838-31.179 0-4.891 0.611-9.17 2.445-13.45-8.559-1.223-17.118-5.502-23.231-12.227-13.45-13.45-16.506-33.013-8.559-49.519-7.947-1.834-15.284-6.113-21.397-11.616-17.118-17.118-17.118-44.628 0-61.746l23.231-23.231-114.933-113.099c-4.279-4.279-4.279-11.616 0-16.506 2.445-2.445 5.502-3.668 7.947-3.668s6.113 1.223 7.947 3.668l115.544 115.544c6.725-3.668 14.061-5.502 21.397-5.502 11.616 0 22.62 4.279 31.179 12.838 9.17 9.17 13.45 20.786 12.838 33.013 0.611 0 1.223 0 1.834 0 11.004 0 22.62 4.279 31.179 12.838s12.838 19.563 12.838 31.179c0 0.611 0 1.223 0 1.834 0.611 0 1.223 0 1.834 0 11.004 0 22.62 4.279 31.179 12.838s12.838 19.563 12.838 31.179c0 0.611 0 1.223 0 1.834 0.611 0 1.223 0 1.834 0 11.004 0 22.62 4.279 31.179 12.838 15.895 15.895 17.118 41.571 3.057 58.689l77.029 77.029c3.668 3.668 9.17 6.113 14.672 6.113s10.393-1.834 14.672-6.113c3.668-3.668 6.113-9.17 6.113-14.672s-1.834-10.393-6.113-14.672l-53.187-53.187c-4.279-4.279-4.279-11.616 0-16.506 2.445-2.445 5.502-3.668 7.947-3.668 3.057 0 6.113 1.223 7.947 3.668l41.571 41.571c7.947 7.947 20.786 7.947 29.344 0 7.947-7.947 7.947-20.786 0-29.344l-41.571-41.571c-4.279-4.279-4.279-11.616 0-16.506 2.445-2.445 5.502-3.668 7.947-3.668 3.057 0 6.113 1.223 7.947 3.668l29.956 29.956c3.668 3.668 9.17 6.113 14.672 6.113s10.393-1.834 14.672-6.113c3.668-3.668 6.113-9.17 6.113-14.672s-1.834-10.393-6.113-14.672l-29.956-29.956c-4.279-4.279-4.279-11.616 0-16.506 2.445-2.445 5.502-3.668 7.947-3.668 3.057 0 6.113 1.223 7.947 3.668l14.061 14.061c7.947 7.947 20.786 7.947 29.344 0 7.947-7.947 7.947-20.786 0-29.344l-111.876-111.876c-28.122-28.122-66.025-44.628-105.762-46.462-3.057 0-5.502-1.223-7.947-3.668l-103.928-104.54c-4.279-4.279-4.279-11.616 0-16.506 2.445-2.445 5.502-3.668 7.947-3.668 3.057 0 6.113 1.223 7.947 3.668l76.418 77.029c19.563-12.227 42.183-18.34 65.414-17.118l59.912-59.912c2.445-2.445 5.502-3.668 7.947-3.668 3.057 0 6.113 1.223 7.947 3.668 4.279 4.279 4.279 11.616 0 16.506l-63.58 63.58c-2.445 2.445-5.502 3.668-9.17 3.668h-3.668c-17.118-1.223-33.624 2.445-48.296 10.393l7.336 7.336c45.239 3.057 86.199 22.008 117.989 53.187zM327.069 422.629c-3.668-3.668-9.17-6.113-14.672-6.113s-10.393 1.834-14.672 6.113l-31.179 31.179c-7.947 7.947-7.947 20.786 0 29.344 3.668 3.668 9.17 6.113 14.672 6.113s10.393-1.834 14.672-6.113l31.179-31.179c7.947-7.947 7.947-21.397 0-29.344zM372.308 468.48c-7.947-7.947-20.786-7.947-29.344 0l-47.073 47.073c-7.947 7.947-7.947 20.786 0 29.344 3.668 3.668 9.17 6.113 14.672 6.113s10.393-1.834 14.672-6.113l47.073-47.073c3.668-3.668 6.113-9.17 6.113-14.672 0-6.113-1.834-11.004-6.113-14.672zM418.159 513.719c-7.947-7.947-20.786-7.947-29.344 0l-58.689 58.689c-3.668 3.668-6.113 9.17-6.113 14.672s1.834 10.393 6.113 14.672c4.279 4.279 9.17 6.113 14.672 6.113s10.393-1.834 14.672-6.113l58.689-58.689c3.668-3.668 6.113-9.17 6.113-14.672s-2.445-11.004-6.113-14.672zM463.398 559.57c-7.947-7.947-20.786-7.947-29.344 0l-58.689 58.689c0 0 0 0 0 0l-11.616 11.616c-7.947 7.947-7.947 20.786 0 29.344 4.279 4.279 9.17 6.113 14.672 6.113s10.393-1.834 14.672-6.113l69.693-69.693c3.668-3.668 6.113-9.17 6.113-14.672 0.611-6.725-1.223-11.616-5.502-15.284zM466.455 618.259l-31.79 31.79c3.668-0.611 7.336-1.223 11.004-1.223 0 0 0 0 0 0h31.79c6.725 0 11.616 5.502 11.616 11.616s-5.502 11.616-11.616 11.616c0 0 0 0 0 0h-31.79c0 0 0 0 0 0-7.947 0-15.284 3.057-20.786 8.559s-8.559 12.838-8.559 20.786v3.668h79.475c14.672 0 29.344-6.113 39.737-17.118l0.611-0.611-69.693-69.082z" />
<glyph unicode="&#xa90b;" horiz-adv-x="906" d="M1.956 667.533v-439.128c0.093-26.006 14.182-48.7 35.123-60.953l0.335-0.181 380.317-219.595c10.173-5.967 22.404-9.491 35.458-9.491s25.285 3.524 35.793 9.673l-0.336-0.181 380.256 219.595c21.309 12.411 35.426 35.114 35.519 61.121v439.141c0 0.018 0 0.039 0 0.061 0 26.115-14.14 48.927-35.183 61.198l-0.337 0.181-380.256 219.595c-10.173 5.967-22.404 9.491-35.458 9.491s-25.285-3.524-35.793-9.673l0.336 0.181-380.317-219.595c-21.347-12.49-35.458-35.304-35.458-61.415 0-0.009 0-0.018 0-0.027v0.001z" />
<glyph unicode="&#xa90c;" horiz-adv-x="906" d="M706.591 539.885l-162.495 61.99c-1.016 0.342-2.186 0.539-3.402 0.539-6.077 0-11.004-4.927-11.004-11.004 0-4.477 2.673-8.329 6.511-10.048l0.070-0.028 135.718-51.72-90.234-34.235-124.042 56.060c-1.248 0.522-2.698 0.826-4.218 0.826s-2.971-0.303-4.292-0.853l0.074 0.027c-4.169-1.629-7.068-5.614-7.068-10.276 0-4.429 2.617-8.247 6.388-9.992l0.068-0.028 103.928-47.135-99.404-37.536-218.677 83.143 218.677 83.387 55.021-20.969c1.177-0.472 2.541-0.745 3.97-0.745 4.572 0 8.489 2.804 10.126 6.786l0.027 0.073c0.536 1.236 0.848 2.675 0.848 4.188s-0.312 2.952-0.875 4.258l0.027-0.070c-1.178 2.773-3.341 4.935-6.039 6.085l-0.074 0.028-58.933 22.436c-1.16 0.463-2.505 0.732-3.913 0.732s-2.752-0.269-3.986-0.758l0.073 0.026-249.673-95.186c-4.177-1.621-7.085-5.605-7.092-10.27v-34.848c0.006-4.665 2.915-8.65 7.017-10.245l0.075-0.026 75.745-28.917v-24.148c-0.019-0.245-0.031-0.531-0.031-0.82 0-6.077 4.927-11.004 11.004-11.004s11.004 4.927 11.004 11.004c0 0.288-0.011 0.574-0.033 0.857l0.002-0.038v15.773l151.797-57.833c1.16-0.463 2.505-0.732 3.913-0.732s2.752 0.269 3.986 0.758l-0.073-0.026 113.282 43.161v-113.954c-34.044-17.962-74.404-28.505-117.226-28.505-58.865 0-113.077 19.923-156.261 53.393l0.583-0.435v57.833c0.019 0.245 0.031 0.531 0.031 0.82 0 6.077-4.927 11.004-11.004 11.004s-11.004-4.927-11.004-11.004c0-0.288 0.011-0.574 0.033-0.857l-0.002 0.038v-63.274c0-0.024 0-0.053 0-0.081 0-3.425 1.591-6.478 4.075-8.461l0.022-0.017c47.041-37.97 107.557-60.951 173.441-60.951 42.589 0 82.935 9.603 118.992 26.762l-1.678-0.719v-23.17c-12.601-4.631-21.428-16.528-21.428-30.486 0-17.895 14.507-32.401 32.401-32.401s32.401 14.507 32.401 32.401c0 13.959-8.827 25.856-21.203 30.414l-0.225 0.072v34.602c13.105 7.595 24.35 15.353 34.945 23.886l-0.526-0.41c2.505 2.032 4.094 5.11 4.096 8.558v0 117.989l75.745 28.917c4.166 1.635 7.067 5.611 7.092 10.268v34.85c-0.025 4.66-2.925 8.635-7.016 10.245l-0.075 0.026zM570.383 467.441v-11.371l-106.251-40.471v11.31zM592.331 331.295v109.614l16.506 6.113v-104.234c-5.258-3.913-10.821-7.825-16.506-11.493zM591.78 240.51c0-0.018 0-0.040 0-0.061 0-5.774-4.68-10.454-10.454-10.454s-10.454 4.68-10.454 10.454c0 5.774 4.68 10.454 10.454 10.454 0.021 0 0.043 0 0.064 0h-0.003c5.74 0 10.393-4.653 10.393-10.393v0zM691.674 513.719v-11.371l-99.343-37.903v11.371zM442.185 426.909v-11.31l-227.542 86.688v11.432z" />
<glyph unicode="&#xa90d;" horiz-adv-x="906" d="M595.020 274.684v219.228l-136.513 61.99c-1.744 0.816-3.788 1.292-5.942 1.292-1.819 0-3.559-0.34-5.16-0.959l0.098 0.033c-3.575-1.371-6.39-4.047-7.912-7.43l-0.036-0.089c-0.801-1.734-1.268-3.763-1.268-5.901 0-5.755 3.384-10.72 8.272-13.013l0.088-0.037 96.776-43.833 23.537-10.393v-200.887c-12.72-5.667-21.428-18.199-21.428-32.765 0-19.752 16.012-35.764 35.764-35.764s35.764 16.012 35.764 35.764c0 14.565-8.707 27.097-21.2 32.674l-0.227 0.091zM580.776 234.886c-0.018 0-0.040 0-0.061 0-3.917 0-7.092 3.175-7.092 7.092s3.175 7.092 7.092 7.092c3.916 0 7.091-3.175 7.092-7.091v0c0 0 0 0 0 0 0-3.895-3.14-7.057-7.027-7.091h-0.003z" />
<glyph unicode="&#xa90e;" horiz-adv-x="906" d="M1.956 667.533v-439.128c0.093-26.006 14.182-48.7 35.123-60.953l0.335-0.181 380.317-219.595c10.173-5.967 22.404-9.491 35.458-9.491s25.285 3.524 35.793 9.673l-0.336-0.181 380.256 219.595c21.309 12.411 35.426 35.114 35.519 61.121v439.141c0 0.018 0 0.039 0 0.061 0 26.115-14.14 48.927-35.183 61.198l-0.337 0.181-380.256 219.595c-10.173 5.967-22.404 9.491-35.458 9.491s-25.285-3.524-35.793-9.673l0.336 0.181-380.317-219.595c-21.347-12.49-35.458-35.304-35.458-61.415 0-0.009 0-0.018 0-0.027v0.001z" />
<glyph unicode="&#xa90f;" horiz-adv-x="906" d="M503.991 623.761h-101.666c-20.258 0-36.681-16.422-36.681-36.681v0-14.428h-116.583c-6.077 0-11.004-4.927-11.004-11.004v0-279.017c0-20.258 16.422-36.681 36.681-36.681v0h357.452c20.258 0 36.681 16.422 36.681 36.681v0 279.323c0.007 0.147 0.011 0.319 0.011 0.492 0 5.909-4.79 10.699-10.699 10.699-0.090 0-0.18-0.001-0.269-0.003h-117.487v14.428c-0.274 19.962-16.453 36.056-36.423 36.191h-0.013zM387.836 587.081c0 0 0 0 0 0 0 7.947 6.425 14.393 14.363 14.428h101.792c7.968 0 14.428-6.46 14.428-14.428v0-14.428h-130.461zM646.19 282.143c0-7.968-6.46-14.428-14.428-14.428h-357.33c-7.968 0-14.428 6.46-14.428 14.428v0 212.258l23.659-70.794c4.896-14.53 18.348-24.829 34.222-24.943h73.375v-14.367c-0.002-0.073-0.003-0.159-0.003-0.245 0-6.044 4.899-10.943 10.943-10.943 0.044 0 0.088 0 0.132 0.001h101.659c6.077 0 11.004 4.927 11.004 11.004v0 14.55h73.361c15.972 0.095 29.517 10.384 34.463 24.685l0.078 0.258 23.598 70.794zM413.329 395.241v28.855h79.475v-28.855zM641.91 551.134l-40.043-120.618c-1.976-5.769-7.352-9.843-13.68-9.843-0.005 0-0.010 0-0.015 0h-73.36v14.428c-0.034 6.064-4.941 10.97-11.001 11.004h-101.486c-0.018 0-0.040 0-0.061 0-6.077 0-11.004-4.927-11.004-11.004 0 0 0 0 0 0v0-14.428h-73.361c-6.315 0.001-11.678 4.077-13.603 9.741l-0.030 0.101-39.982 120.618z" />
<glyph unicode="&#xa910;" horiz-adv-x="906" d="M657.377 573.142h-116.95v1.284h-22.008v-1.284h-130.461v1.284h-22.008v-1.284h-116.889c-6.077 0-11.004-4.927-11.004-11.004v0-12.227l21.947-64.741v9.231l23.659-70.794c4.896-14.53 18.348-24.829 34.222-24.943h73.375v-14.367c-0.002-0.073-0.003-0.159-0.003-0.245 0-6.044 4.899-10.943 10.943-10.943 0.044 0 0.088 0 0.132 0.001h101.659c6.077 0 11.004 4.927 11.004 11.004v0 14.55h73.361c15.972 0.095 29.517 10.384 34.463 24.685l0.078 0.258 23.598 70.794v-7.030l22.008 61.685v12.899c0.007 0.149 0.012 0.323 0.012 0.498 0 5.909-4.79 10.699-10.699 10.699-0.155 0-0.308-0.003-0.461-0.010l0.022 0.001zM492.987 395.241h-79.475v28.855h79.475zM601.867 430.516c-1.976-5.769-7.352-9.843-13.68-9.843-0.005 0-0.010 0-0.015 0h-73.36v14.428c-0.034 6.064-4.941 10.97-11.001 11.004h-101.486c-0.018 0-0.040 0-0.061 0-6.077 0-11.004-4.927-11.004-11.004 0 0 0 0 0 0v0-14.428h-73.361c-6.315 0.001-11.678 4.077-13.603 9.741l-0.030 0.101-39.982 120.618h377.627z" />
<glyph unicode="&#xa911;" horiz-adv-x="906" d="M1.956 667.533v-439.128c0.093-26.006 14.182-48.7 35.123-60.953l0.335-0.181 380.317-219.595c10.173-5.967 22.404-9.491 35.458-9.491s25.285 3.524 35.793 9.673l-0.336-0.181 380.256 219.595c21.309 12.411 35.426 35.114 35.519 61.121v439.141c0 0.018 0 0.039 0 0.061 0 26.115-14.14 48.927-35.183 61.198l-0.337 0.181-380.256 219.595c-10.173 5.967-22.404 9.491-35.458 9.491s-25.285-3.524-35.793-9.673l0.336 0.181-380.317-219.595c-21.347-12.49-35.458-35.304-35.458-61.415 0-0.009 0-0.018 0-0.027v0.001z" />
<glyph unicode="&#xa912;" horiz-adv-x="906" d="M378.36 683.795c-6.753 0-12.227-5.474-12.227-12.227s5.474-12.227 12.227-12.227c6.753 0 12.227 5.474 12.227 12.227v0c0 6.753-5.474 12.227-12.227 12.227v0z" />
<glyph unicode="&#xa913;" horiz-adv-x="906" d="M470.734 503.999h0.795c14.397 5.172 24.508 18.706 24.508 34.602 0 20.258-16.422 36.681-36.681 36.681-0.019 0-0.038 0-0.058 0h0.003c-7.631 0-13.816 6.186-13.816 13.816s6.186 13.816 13.816 13.816v0c5.772-0.341 10.875-2.955 14.472-6.95l0.017-0.019c2.010-1.764 4.661-2.84 7.564-2.84 6.348 0 11.493 5.146 11.493 11.493 0 3.040-1.18 5.804-3.107 7.859l0.006-0.006c-5.028 4.98-11.164 8.851-18.005 11.209l-0.335 0.1-0.672 0.55v15.528c-0.45 5.977-5.41 10.656-11.463 10.656s-11.013-4.679-11.46-10.617l-0.002-0.038v-15.589h-0.795c-14.397-5.172-24.508-18.706-24.508-34.602 0-20.258 16.422-36.681 36.681-36.681 0.019 0 0.038 0 0.058 0h-0.003c7.631 0 13.816-6.186 13.816-13.816s-6.186-13.816-13.816-13.816v0c-7.136 0.704-13.278 4.444-17.191 9.893l-0.049 0.072c-1.99 2.186-4.787 3.607-7.916 3.789l-0.031 0.001h-0.978c-0.018 0-0.038 0-0.059 0-2.786 0-5.333-1.018-7.292-2.702l0.015 0.012c-2.239-1.896-3.71-4.641-3.911-7.731l-0.002-0.033c-0.032-0.32-0.050-0.691-0.050-1.066 0-2.794 1.013-5.352 2.692-7.325l-0.013 0.016c5.836-7.204 13.46-12.741 22.203-15.964l0.356-0.115h0.795v-15.589c0.45-5.977 5.41-10.656 11.463-10.656s11.013 4.679 11.46 10.617l0.002 0.038z" />
<glyph unicode="&#xa914;" horiz-adv-x="906" d="M551.004 678.232v0c-25.081 20.244-57.346 32.496-92.473 32.496-11.362 0-22.424-1.282-33.050-3.709l0.992 0.191c-5.564-1.238-9.663-6.131-9.663-11.982 0-6.771 5.489-12.261 12.261-12.261 0.92 0 1.817 0.101 2.68 0.294l-0.082-0.015c8.073 1.883 17.342 2.962 26.863 2.962 29.269 0 56.156-10.198 77.302-27.233l-0.237 0.185c27.963-22.596 45.696-56.888 45.696-95.322 0-67.527-54.742-122.269-122.269-122.269s-122.269 54.742-122.269 122.269c0 21.21 5.401 41.159 14.902 58.546l-0.32-0.639c0.915 1.673 1.454 3.665 1.454 5.782 0 4.644-2.589 8.683-6.402 10.753l-0.064 0.032c-1.662 0.914-3.64 1.456-5.743 1.467h-0.003c-1.288-0.013-2.528-0.191-3.709-0.513l0.102 0.024c-3.168-1.022-5.714-3.21-7.182-6.045l-0.032-0.068c-10.984-20.073-17.445-43.976-17.445-69.388 0-81.033 65.69-146.722 146.722-146.722s146.722 65.69 146.722 146.722c0 46.085-21.247 87.207-54.479 114.106l-0.276 0.216z" />
<glyph unicode="&#xa915;" horiz-adv-x="906" d="M660.251 352.814c-7.142 12.561-20.434 20.895-35.673 20.895-6.722 0-13.066-1.622-18.661-4.496l0.23 0.107-58.261-27.51c-8.894 14.751-24.645 24.58-42.725 25.064l-0.069 0.001-55.571 1.528c-8.953 0.211-17.337 2.447-24.776 6.264l0.322-0.15-5.624 2.934c-13.668 7.251-29.882 11.509-47.090 11.509-15.804 0-30.769-3.591-44.124-10.001l0.613 0.265v9.109c0.002 0.074 0.003 0.162 0.003 0.249 0 5.363-4.263 9.731-9.586 9.899h-0.015l-61.134 1.651c-0.074 0.002-0.162 0.003-0.249 0.003-5.363 0-9.731-4.263-9.899-9.586v-0.015l-3.424-133.579c-0.002-0.074-0.003-0.162-0.003-0.249 0-5.363 4.263-9.731 9.586-9.899h0.015l61.134-1.651c0.037-0.001 0.080-0.001 0.124-0.001 5.338 0 9.677 4.276 9.78 9.589v5.145l14.672 7.825c3.384 1.883 7.423 2.992 11.72 2.992 2.357 0 4.636-0.333 6.793-0.956l-0.173 0.043 94.391-26.532h0.734c6.356-1.354 13.661-2.133 21.147-2.14h0.005c0.065 0 0.143 0 0.221 0 15.777 0 30.732 3.515 44.126 9.806l-0.636-0.268 1.223 0.672 136.941 88.584c2.97 1.732 4.935 4.902 4.935 8.532 0 1.591-0.378 3.094-1.048 4.424l0.026-0.056zM454.106 327.015c-0.092 0.003-0.199 0.005-0.307 0.005-5.373 0-9.741-4.305-9.841-9.655v-0.009c-0.001-0.056-0.002-0.122-0.002-0.188 0-5.397 4.29-9.791 9.646-9.96h0.015l91.701-2.507c0.001 0 0.003 0 0.005 0 5.362 0 9.729 4.261 9.899 9.583v0.016c0.008 0.331 0.012 0.72 0.012 1.111 0 2.693-0.204 5.338-0.598 7.921l0.036-0.289 60.462 28.55c2.795 1.444 6.1 2.29 9.602 2.29 4.552 0 8.769-1.429 12.229-3.864l-0.068 0.045-126.915-81.981c-10.183-4.717-22.102-7.468-34.663-7.468-5.995 0-11.844 0.627-17.484 1.818l0.549-0.097-94.147 26.41c-3.644 1.087-7.831 1.712-12.165 1.712-0.022 0-0.044 0-0.066 0h0.003c-7.733-0.022-14.996-2.012-21.321-5.496l0.23 0.116-4.707-2.507 2.017 73.361c12.592 8.235 28.014 13.134 44.58 13.134 13.87 0 26.937-3.434 38.399-9.498l-0.447 0.216 5.685-2.934c9.55-4.948 20.812-7.948 32.751-8.191l0.078-0.001 55.51-1.528c13.773-0.347 25.309-9.539 29.164-22.092l0.059-0.222zM309.095 379.224l-3.424-114.077-41.082 1.1 3.118 113.832z" />
<glyph unicode="&#xa916;" horiz-adv-x="907" d="M6.725 664.721v-434.054c0-25.065 13.45-48.296 34.847-60.523l375.976-217.027c22.008-12.227 48.296-12.227 70.304 0l375.976 217.027c21.397 12.227 34.847 35.458 34.847 60.523v434.054c0 25.065-13.45 48.296-34.847 60.523l-375.976 217.027c-22.008 12.227-48.296 12.227-70.304 0l-375.365-216.416c-22.008-12.838-35.458-36.069-35.458-61.134z" />
<glyph unicode="&#xa917;" horiz-adv-x="907" d="M700.599 412.848c0 0 0 0.611 0 0.611l-25.065 174.233c-0.611 3.057-2.445 5.502-4.891 7.336-2.445 1.223-5.502 1.834-8.559 0.611l-114.933-46.462c-4.891-1.834-7.336-7.947-5.502-12.838s7.947-7.336 12.838-5.502l103.317 41.571 23.231-160.783c0-0.611 0-0.611 0-1.223 4.891-29.956-0.611-60.523-15.284-86.811-17.118-29.956-45.239-51.353-78.863-60.523s-68.47-4.279-99.038 12.838c0 0-0.611 0-0.611 0.611 6.725 4.891 12.838 10.393 18.34 15.895l114.321 30.567c5.502 1.223 8.559 6.725 6.725 12.227-1.223 5.502-6.725 8.559-12.227 6.725l-88.033-23.231c9.781 14.061 17.118 29.956 22.62 47.073l78.252 20.786c5.502 1.223 8.559 6.725 6.725 12.227-1.223 5.502-6.725 8.559-12.227 6.725l-57.466-15.284 21.397 37.292 45.851 12.227c5.502 1.223 8.559 6.725 6.725 12.227-1.223 5.502-6.725 8.559-12.227 6.725l-26.899-7.336 20.786 36.069c2.445 4.891 1.223 10.393-3.668 13.45-4.891 2.445-10.393 1.223-13.45-3.668l-20.786-36.069-7.336 26.899c-1.223 5.502-6.725 8.559-12.227 6.725-5.502-1.223-8.559-6.725-6.725-12.227l12.227-45.851-12.838-22.008c0.611 31.179-7.336 61.746-23.842 89.867-20.174 34.847-51.964 61.746-89.256 76.418 0 0 0 0 0 0l-44.017 17.729c-4.891 1.834-10.393-0.611-12.838-5.502-1.834-4.891 0.611-10.393 5.502-12.838l43.405-17.729c0 0 0.611 0 0.611 0 33.624-12.838 61.746-36.681 80.086-67.859 20.786-36.069 26.288-78.252 15.284-119.212-9.781-37.292-33.013-69.082-64.802-90.479l-14.672 29.956 35.458 132.050c1.223 5.502-1.834 10.393-6.725 12.227-5.502 1.223-10.393-1.834-12.227-6.725l-30.567-113.71-36.069 62.357 24.454 91.701c1.223 5.502-1.834 10.393-6.725 12.227-5.502 1.223-10.393-1.834-12.227-6.725l-18.952-73.361-28.733 49.519 14.672 55.021c1.223 5.502-1.834 10.393-6.725 12.227-5.502 1.223-10.393-1.834-12.227-6.725l-9.781-36.681-26.288 46.462c-2.445 4.891-8.559 6.113-13.45 3.668s-6.113-8.559-3.668-13.45l26.899-46.462-36.681 9.781c-5.502 1.223-10.393-1.834-12.227-6.725-1.223-5.502 1.834-10.393 6.725-12.227l55.021-14.672 28.733-49.519-72.75 19.563c-5.502 1.223-10.393-1.834-12.227-6.725-1.223-5.502 1.834-10.393 6.725-12.227l91.701-24.454 36.069-62.357-113.71 30.567c-5.502 1.223-10.393-1.834-12.227-6.725-1.223-5.502 1.834-10.393 6.725-12.227l132.050-35.458 16.506-28.122c-73.361-36.681-164.451-10.393-206.023 61.746-18.34 31.179-25.065 68.47-18.952 104.54 0 0.611 0 1.223 0 1.223l28.122 193.796 66.636-26.288c4.891-1.834 10.393 0.611 12.838 5.502 1.834 4.891-0.611 10.393-5.502 12.838l-75.807 31.179c-3.057 1.223-6.113 0.611-8.559-0.611s-4.279-4.279-4.891-7.336l-29.956-207.245c0-0.611 0-0.611 0-1.223-6.725-39.737 1.223-81.309 21.397-116.155 32.401-56.244 91.701-88.033 152.836-88.033 26.899 0 54.41 6.113 79.475 18.952l12.227-20.786c1.834-3.057 4.891-4.891 8.559-4.891 1.834 0 3.057 0.611 4.891 1.223 4.891 2.445 6.113 8.559 3.668 13.45l-4.279 7.947c21.397-11.004 45.239-17.118 69.082-17.118 12.838 0 26.288 1.834 39.126 4.891 38.515 10.393 70.916 34.847 91.090 69.693 15.895 29.956 22.008 64.802 16.506 98.426z" />
<glyph unicode="&#xa918;" horiz-adv-x="907" d="M364.972 613.368c-1.834 1.834-4.279 3.057-6.725 3.057s-4.891-1.223-6.725-3.057c-1.834-1.834-3.057-4.279-3.057-6.725s1.223-4.891 3.057-6.725c1.834-1.834 4.279-3.057 6.725-3.057s4.891 1.223 6.725 3.057c1.834 1.834 3.057 4.279 3.057 6.725s-1.223 4.891-3.057 6.725z" />
<glyph unicode="&#xa919;" horiz-adv-x="907" d="M636.408 527.78v0c-3.057 4.279-9.17 5.502-13.45 2.445s-5.502-9.17-2.445-13.45v0c1.834-2.445 4.891-4.279 7.947-4.279 1.834 0 4.279 0.611 5.502 1.834 4.279 3.057 5.502 8.559 2.445 13.45z" />
<glyph unicode="&#xa91a;" horiz-adv-x="907" d="M467.066 286.911l-16.506 28.122 35.458 132.050c1.223 5.502-1.834 10.393-6.725 12.227-5.502 1.223-10.393-1.834-12.227-6.725l-30.567-113.71-36.069 62.357 24.454 91.701c1.223 5.502-1.834 10.393-6.725 12.227-5.502 1.223-10.393-1.834-12.227-6.725l-18.952-73.361-28.733 49.519 14.672 55.021c1.223 5.502-1.834 10.393-6.725 12.227-5.502 1.223-10.393-1.834-12.227-6.725l-9.781-36.681-26.288 46.462c-2.445 4.891-8.559 6.113-13.45 3.668s-6.113-8.559-3.668-13.45l26.899-46.462-36.681 9.781c-5.502 1.223-10.393-1.834-12.227-6.725-1.223-5.502 1.834-10.393 6.725-12.227l55.021-14.672 28.733-49.519-72.75 19.563c-5.502 1.223-10.393-1.834-12.227-6.725-1.223-5.502 1.834-10.393 6.725-12.227l91.701-24.454 36.069-62.357-113.71 30.567c-5.502 1.223-10.393-1.834-12.227-6.725-1.223-5.502 1.834-10.393 6.725-12.227l134.496-35.458 16.506-28.122 9.781-17.118 12.227-20.786c1.834-3.057 4.891-4.891 8.559-4.891 1.834 0 3.057 0.611 4.891 1.223 4.891 2.445 6.113 8.559 3.668 13.45l-4.279 7.947-18.34 29.956z" />
<glyph unicode="&#xa91b;" horiz-adv-x="907" d="M6.725 664.721v-434.054c0-25.065 13.45-48.296 34.847-60.523l375.976-217.027c22.008-12.227 48.296-12.227 70.304 0l375.976 217.027c21.397 12.227 34.847 35.458 34.847 60.523v434.054c0 25.065-13.45 48.296-34.847 60.523l-375.976 217.027c-22.008 12.227-48.296 12.227-70.304 0l-375.365-216.416c-22.008-12.838-35.458-36.069-35.458-61.134z" />
<glyph unicode="&#xa91c;" horiz-adv-x="907" d="M713.438 528.392c0 34.847-13.45 67.248-37.903 91.701-21.397 21.397-47.685 33.624-75.807 36.681v65.414h-321.567v-548.986h321.567v187.682l75.807 75.807c24.454 24.454 37.903 56.855 37.903 91.701zM471.346 205.602h-64.802v34.235h64.191v-34.235zM503.136 205.602v66.636h-128.382v-66.636h-64.191v484.795h257.376v-33.013c-11.004-1.223-22.008-4.279-32.401-8.559v9.17h-193.184v-32.401h155.893c-1.834-1.834-4.279-3.668-6.113-6.113-7.947-7.947-14.672-17.118-20.174-26.288h-129.605v-32.401h116.155c-2.445-10.393-4.279-21.397-4.279-32.401h-111.876v-32.401h114.933c3.057-11.004 6.725-22.008 12.838-32.401h-127.771v-32.401h153.447l32.401-32.401h-185.848v-32.401h193.184v24.454l32.401-32.401v-155.281h-64.802zM583.833 390.228l-69.082 69.082c-18.34 18.34-28.733 42.794-28.733 69.082s10.393 50.741 28.733 69.082c18.952 18.952 44.017 28.733 69.082 28.733s50.13-9.781 69.082-28.733c18.34-18.34 28.733-42.794 28.733-69.082s-10.393-50.741-28.733-69.082l-69.082-69.082z" />
<glyph unicode="&#xa91d;" horiz-adv-x="907" d="M583.833 591.36c-35.458 0-64.191-28.733-64.191-64.191s28.733-64.191 64.191-64.191c35.458 0 64.191 28.733 64.191 64.191s-28.733 64.191-64.191 64.191zM583.833 495.379c-17.729 0-32.401 14.672-32.401 32.401s14.672 32.401 32.401 32.401c17.729 0 32.401-14.672 32.401-32.401s-14.672-32.401-32.401-32.401z" />
<glyph unicode="&#xa91e;" horiz-adv-x="906" d="M1.956 667.533v-439.128c0.093-26.006 14.182-48.7 35.123-60.953l0.335-0.181 380.317-219.595c10.173-5.967 22.404-9.491 35.458-9.491s25.285 3.524 35.793 9.673l-0.336-0.181 380.256 219.595c21.309 12.411 35.426 35.114 35.519 61.121v439.141c0 0.018 0 0.039 0 0.061 0 26.115-14.14 48.927-35.183 61.198l-0.337 0.181-380.256 219.595c-10.173 5.967-22.404 9.491-35.458 9.491s-25.285-3.524-35.793-9.673l0.336 0.181-380.317-219.595c-21.347-12.49-35.458-35.304-35.458-61.415 0-0.009 0-0.018 0-0.027v0.001z" />
<glyph unicode="&#xa91f;" horiz-adv-x="906" d="M468.411 225.96l0.55-0.306c2.055-1.308 4.559-2.084 7.244-2.084s5.189 0.776 7.3 2.117l-0.055-0.033c39.396 25.355 73.297 50.431 105.503 77.46l-1.575-1.287c65.475 55.021 104.723 105.334 113.588 145.377 4.401 12.654 6.951 27.24 6.969 42.418v0.009c-0.005 51.281-28.285 95.957-70.1 119.285l-0.693 0.355c-18.996 10.343-41.602 16.425-65.628 16.425-36.302 0-69.361-13.884-94.158-36.631l0.103 0.093-1.162-1.1-1.223 1.1c-24.695 22.59-57.723 36.43-93.984 36.43-23.955 0-46.5-6.040-66.194-16.681l0.739 0.365c-42.49-23.702-70.761-68.366-70.794-119.635v-0.005c-0.001-0.188-0.002-0.411-0.002-0.633 0-14.316 2.373-28.078 6.746-40.914l-0.264 0.893c2.034-8.481 4.529-15.799 7.61-22.8l-0.335 0.852 1.039-2.384h-47.379c-7.496 0-13.572-6.076-13.572-13.572s6.076-13.572 13.572-13.572h178.145c5.458 0.097 10.121 3.402 12.193 8.105l0.034 0.087 18.34 42.122 21.764-91.701c1.333-5.328 5.659-9.366 11.047-10.26l0.080-0.011h2.079c4.856 0.044 9.106 2.597 11.521 6.423l0.033 0.057 44.384 72.994h47.746c7.496 0 13.572 6.076 13.572 13.572s-6.076 13.572-13.572 13.572h-55.021c-4.865-0.006-9.13-2.572-11.521-6.422l-0.033-0.058-31.484-51.597-23.476 99.343c-1.32 5.749-6.226 10.031-12.19 10.391l-0.037 0.002c-0.36 0.034-0.779 0.053-1.203 0.053-5.524 0-10.278-3.3-12.396-8.037l-0.034-0.086-30.812-71.405h-91.274l-0.489 0.856c-5.117 8.799-9.31 18.978-12.048 29.737l-0.179 0.83c-3.431 9.989-5.44 21.5-5.502 33.472v0.029c0.050 41.111 22.724 76.915 56.238 95.635l0.556 0.285c15.1 8.053 33.023 12.783 52.052 12.783 33.899 0 64.292-15.011 84.894-38.749l0.118-0.139c2.509-2.821 6.149-4.589 10.201-4.589 0.11 0 0.221 0.001 0.331 0.004h-0.016c0.105-0.003 0.228-0.005 0.352-0.005 3.984 0 7.555 1.773 9.965 4.573l0.014 0.017c20.688 23.876 51.056 38.89 84.93 38.89 19.015 0 36.925-4.731 52.617-13.080l-0.606 0.294c34.026-18.859 56.678-54.559 56.678-95.55 0-12.699-2.174-24.891-6.171-36.223l0.234 0.762c-14.672-66.392-130.889-157.421-197.28-200.704l-0.917-0.611-0.978 0.672c-37.026 24.667-68.918 48.788-99.321 74.609l1.506-1.248c-2.37 1.975-5.446 3.176-8.803 3.179h-0.001c-0.029 0-0.063 0-0.098 0-7.462 0-13.511-6.049-13.511-13.511 0-4.136 1.858-7.837 4.785-10.316l0.020-0.016c32.144-27.39 67.602-53.907 104.696-78.125l4-2.45z" />
<glyph unicode="&#xa920;" horiz-adv-x="906" d="M559.807 452.279h-55.021c-4.865-0.006-9.13-2.572-11.521-6.422l-0.033-0.058-31.668-51.414-23.476 99.343c-1.32 5.749-6.226 10.031-12.19 10.391l-0.037 0.002c-0.36 0.034-0.779 0.053-1.203 0.053-5.524 0-10.278-3.3-12.396-8.037l-0.034-0.086-30.812-71.405h-91.274l-0.489 0.856h-30.567l0.489-1.1h-47.318c-7.496 0-13.572-6.076-13.572-13.572s6.076-13.572 13.572-13.572h178.145c5.458 0.097 10.121 3.402 12.193 8.105l0.034 0.087 18.34 42.122 21.764-91.701c1.333-5.328 5.659-9.366 11.047-10.26l0.080-0.011h2.079c4.856 0.044 9.106 2.597 11.521 6.423l0.033 0.057 44.384 72.994h47.746c7.496 0 13.572 6.076 13.572 13.572s-6.076 13.572-13.572 13.572v0z" />
<glyph unicode="&#xa937;" horiz-adv-x="907" d="M6.725 664.721v-434.054c0-25.065 13.45-48.296 34.847-60.523l375.976-217.027c22.008-12.227 48.296-12.227 70.304 0l375.976 217.027c21.397 12.227 34.847 35.458 34.847 60.523v434.054c0 25.065-13.45 48.296-34.847 60.523l-375.976 217.027c-22.008 12.227-48.296 12.227-70.304 0l-375.365-216.416c-22.008-12.838-35.458-36.069-35.458-61.134z" />
<glyph unicode="&#xa938;" horiz-adv-x="907" d="M674.312 437.913c-5.502 0-10.393-4.279-10.393-10.393s4.891-10.393 11.004-9.781c4.891 0.611 9.17 4.891 9.17 9.781 0.611 6.113-4.279 10.393-9.781 10.393z" />
<glyph unicode="&#xa939;" horiz-adv-x="907" d="M465.844 478.873c-5.502 0-10.393-4.279-10.393-10.393 0-5.502 3.668-9.781 9.17-9.781 6.113-0.611 11.004 4.279 11.004 9.781s-4.279 10.393-9.781 10.393z" />
<glyph unicode="&#xa93a;" horiz-adv-x="907" d="M465.844 519.221c-72.75 0-131.439-59.3-131.439-131.439s59.3-131.439 131.439-131.439 131.439 59.3 131.439 131.439-58.689 131.439-131.439 131.439zM465.844 275.907c-61.134 0-111.264 50.13-111.264 111.264s50.13 111.264 111.264 111.264 111.264-50.13 111.264-111.264-50.13-111.264-111.264-111.264z" />
<glyph unicode="&#xa93b;" horiz-adv-x="907" d="M509.86 467.257c-4.891 2.445-11.004 1.223-14.061-3.668-2.445-4.891-1.223-11.004 3.668-14.061 22.62-12.227 36.681-36.069 36.681-61.746 0-5.502 4.279-10.393 10.393-10.393 5.502 0 10.393 4.279 10.393 10.393 0 33.013-18.34 63.58-47.073 79.475z" />
<glyph unicode="&#xa93c;" horiz-adv-x="907" d="M694.486 539.396h-9.781v30.567c0 5.502-4.279 10.393-10.393 10.393h-40.349c-5.502 0-10.393-4.279-10.393-10.393v-30.567h-77.029c-9.781 4.891-20.174 9.17-30.567 12.838v28.122h30.567c16.506 0 30.567 13.45 30.567 30.567v60.523c0 16.506-13.45 30.567-30.567 30.567h-162.006c-16.506 0-30.567-13.45-30.567-30.567v-60.523c0-16.506 13.45-30.567 30.567-30.567h30.567v-28.122c-10.393-3.057-20.786-7.336-30.567-12.838-23.842 0-54.41 0-77.029 0v30.567c0 5.502-4.279 10.393-10.393 10.393h-40.349c-5.502 0-10.393-4.279-10.393-10.393v-30.567h-10.393c-16.506 0-30.567-13.45-30.567-30.567 0-9.781 0-232.31 0-243.315 0-16.506 13.45-30.567 30.567-30.567h147.945c25.065-13.45 52.576-20.174 81.309-20.174s56.244 6.725 81.309 20.174h147.945c16.506 0 30.567 13.45 30.567 30.567 0 9.781 0 232.31 0 243.315 0 17.118-13.45 30.567-30.567 30.567zM643.744 559.57h20.174v-20.174h-20.174v20.174zM384.535 599.919c-5.502 0-10.393 4.279-10.393 10.393v60.523c0 5.502 4.279 10.393 10.393 10.393h162.006c5.502 0 10.393-4.279 10.393-10.393v-60.523c0-5.502-4.279-10.393-10.393-10.393h-162.006zM496.411 579.744v-23.231c-9.781 1.834-20.174 2.445-30.567 2.445s-20.174-1.223-30.567-2.445v23.231h61.134zM267.157 559.57h20.174v-20.174h-20.174v20.174zM226.808 508.829c0 5.502 4.279 10.393 10.393 10.393h117.378c-13.45-11.616-25.676-25.065-34.847-40.349h-92.924v29.956zM226.808 458.699h81.92c-9.781-22.008-15.284-46.462-15.284-70.916s5.502-48.907 15.284-70.916h-81.92v141.832zM237.201 255.733c-5.502 0-10.393 4.279-10.393 10.393v30.567h92.924c9.781-15.284 21.397-28.733 34.847-40.349h-117.378zM465.844 235.558c-83.754 0-151.613 67.859-151.613 151.613s67.859 151.613 151.613 151.613c83.754 0 151.613-67.859 151.613-151.613s-67.859-151.613-151.613-151.613zM704.879 266.125c0-5.502-4.279-10.393-10.393-10.393h-117.989c13.45 11.616 25.676 25.065 34.847 40.349h92.924v-29.956zM704.879 316.867h-81.92c9.781 22.008 15.284 46.462 15.284 70.916s-5.502 48.907-15.284 70.916h81.92v-141.832zM704.879 478.873h-92.924c-9.781 15.284-21.397 28.733-34.847 40.349h117.989c5.502 0 10.393-4.279 10.393-10.393v-29.956z" />
<glyph unicode="&#xa93d;" horiz-adv-x="907" d="M526.367 661.053c-5.502 0-10.393-4.279-10.393-10.393v-20.174c0-5.502 4.279-10.393 10.393-10.393s10.393 4.279 10.393 10.393v20.174c0 5.502-4.891 10.393-10.393 10.393z" />
<glyph unicode="&#xa93e;" horiz-adv-x="907" d="M6.725 664.721v-434.054c0-25.065 13.45-48.296 34.847-60.523l375.976-217.027c22.008-12.227 48.296-12.227 70.304 0l375.976 217.027c21.397 12.227 34.847 35.458 34.847 60.523v434.054c0 25.065-13.45 48.296-34.847 60.523l-375.976 217.027c-22.008 12.227-48.296 12.227-70.304 0l-375.365-216.416c-22.008-12.838-35.458-36.069-35.458-61.134z" />
<glyph unicode="&#xa93f;" horiz-adv-x="907" d="M559.379 379.224h-212.747c-5.502 0-9.781-4.279-9.781-9.781s4.279-9.781 9.781-9.781h212.747c5.502 0 9.781 4.279 9.781 9.781s-4.279 9.781-9.781 9.781z" />
<glyph unicode="&#xa940;" horiz-adv-x="907" d="M695.709 527.169h-28.733c-4.891 0-9.17-1.223-12.227-4.279l-25.065 79.475c-5.502 17.729-22.008 29.956-40.96 29.956h-271.436c-18.952 0-35.458-12.227-40.96-29.956l-25.065-78.863c-3.668 2.445-7.947 3.668-12.227 3.668h-28.733c-11.616 0-21.397-9.781-21.397-21.397v-14.061c0-11.616 9.781-21.397 21.397-21.397h11.616c-6.113-9.781-9.781-22.008-9.781-34.235v-76.418c0-15.895 10.393-29.344 24.454-33.624v0-31.79c0-16.506 13.45-29.956 29.956-29.956h29.956c16.506 0 29.956 13.45 29.956 29.956v29.956h251.262v-29.956c0-16.506 13.45-29.956 29.956-29.956h29.956c16.506 0 29.956 13.45 29.956 29.956v31.79c14.061 4.891 24.454 18.34 24.454 33.624v76.418c0 12.838-3.668 24.454-9.781 34.235h11.616c11.616 0 21.397 9.781 21.397 21.397v14.061c1.834 12.227-7.947 21.397-19.563 21.397zM294.667 596.251c3.057 9.781 12.227 16.506 22.62 16.506h270.825c10.393 0 19.563-6.725 22.62-16.506l30.567-95.981c-1.223 0-1.834 0.611-3.057 0.611 0 0-0.611 0-0.611 0-0.611 0-1.223 0-1.834 0.611-0.611 0-0.611 0-1.223 0s-1.223 0-1.834 0c-0.611 0-1.223 0-1.834 0s-0.611 0-1.223 0c-1.223 0-1.834 0-3.057 0h-347.854c-1.223 0-1.834 0-3.057 0-0.611 0-0.611 0-1.223 0s-1.223 0-1.834 0c-0.611 0-1.223 0-1.834 0s-0.611 0-1.223 0-1.223 0-1.834-0.611c0 0-0.611 0-0.611 0-1.223 0-1.834-0.611-3.057-0.611l30.567 95.981zM271.436 482.541c0.611 0 0.611 0 1.223 0s1.223 0 1.223 0 1.223 0 1.223 0 0.611 0 1.223 0 1.834 0 2.445 0h347.854c0.611 0 1.834 0 2.445 0s0.611 0 1.223 0 1.223 0 1.223 0 1.223 0 1.223 0 0.611 0 1.223 0c5.502-0.611 10.393-2.445 15.284-5.502-15.895-22.008-41.571-35.458-69.082-35.458h-254.93c-27.51 0-53.187 13.45-69.082 35.458 4.891 2.445 9.781 4.279 15.284 5.502zM210.913 489.877c-1.223 0-1.834 1.223-1.834 1.834v14.061c0 1.223 1.223 1.834 1.834 1.834h28.733c1.223 0 1.834-1.223 1.834-1.834v-14.061c0 0 0 0 0-0.611v-0.611c-0.611-0.611-1.223-1.223-1.834-1.223h-28.733zM308.117 293.636v0c0-6.113-4.891-11.004-11.004-11.004h-29.956c-6.113 0-11.004 4.891-11.004 11.004v29.956h51.964v-29.956zM649.858 293.636c0-6.113-4.891-11.004-11.004-11.004h-29.956c-6.113 0-11.004 4.891-11.004 11.004v29.956h51.964v-29.956zM674.312 359.661c0-9.17-7.336-16.506-16.506-16.506h-409.6c-9.17 0-16.506 7.336-16.506 16.506v76.418c0 11.004 3.668 20.786 9.781 28.733 19.563-26.288 50.741-42.183 83.754-42.183h255.541c33.013 0 64.191 15.895 83.754 42.183 6.113-7.947 9.781-17.729 9.781-28.733v-76.418zM697.543 491.711c0-1.223-1.223-1.834-1.834-1.834h-28.733c-1.223 0-1.834 1.223-1.834 1.834v14.061c0 1.223 1.223 1.834 1.834 1.834h28.733c1.223 0 1.834-1.223 1.834-1.834v-14.061z" />
<glyph unicode="&#xa941;" horiz-adv-x="907" d="M325.846 378.001l-7.336 24.454c-1.834 5.502-6.113 9.781-11.004 11.004l-43.405 11.616c-4.891 1.223-10.393 0-14.672-3.668s-6.113-8.559-5.502-14.061l3.057-24.454c0.611-6.725 5.502-11.616 12.227-13.45l47.073-11.616c1.223-0.611 2.445-0.611 3.668-0.611 4.279 0 8.559 1.834 11.616 4.891 4.279 4.279 6.113 10.393 4.279 15.895zM265.934 387.783l-2.445 17.118 37.292-9.781 4.891-17.118-39.737 9.781z" />
<glyph unicode="&#xa942;" horiz-adv-x="907" d="M656.583 421.407c-4.279 3.668-9.17 4.891-14.672 3.668l-43.405-11.616c-5.502-1.223-9.781-5.502-11.004-11.004l-7.336-24.454c-1.834-5.502 0-11.616 3.668-15.284 3.057-3.057 7.336-4.891 11.616-4.891 1.223 0 2.445 0 3.668 0.611l47.073 11.616c6.113 1.834 11.004 6.725 12.227 13.45l3.057 24.454c1.223 4.279-0.611 9.781-4.891 13.45zM640.076 387.783l-39.737-9.781 4.891 17.118 37.292 9.781-2.445-17.118z" />
<glyph unicode="&#xa943;" horiz-adv-x="907" d="M566.104 409.18h-135.107c-5.502 0-9.781-4.279-9.781-9.781s4.279-9.781 9.781-9.781h135.107c5.502 0 9.781 4.279 9.781 9.781s-4.891 9.781-9.781 9.781z" />
<glyph unicode="&#xa944;" horiz-adv-x="907" d="M368.029 409.18h-28.733c-5.502 0-9.781-4.279-9.781-9.781s4.279-9.781 9.781-9.781h28.733c5.502 0 9.781 4.279 9.781 9.781s-4.279 9.781-9.781 9.781z" />
<glyph unicode="&#xe920;" horiz-adv-x="906" d="M1.956 667.533v-439.128c0.093-26.006 14.182-48.7 35.123-60.953l0.335-0.181 380.317-219.595c10.173-5.967 22.404-9.491 35.458-9.491s25.285 3.524 35.793 9.673l-0.336-0.181 380.256 219.595c21.309 12.411 35.426 35.114 35.519 61.121v439.141c0 0.018 0 0.039 0 0.061 0 26.115-14.14 48.927-35.183 61.198l-0.337 0.181-380.256 219.595c-10.173 5.967-22.404 9.491-35.458 9.491s-25.285-3.524-35.793-9.673l0.336 0.181-380.317-219.595c-21.347-12.49-35.458-35.304-35.458-61.415 0-0.009 0-0.018 0-0.027v0.001z" />
<glyph unicode="&#xe921;" horiz-adv-x="907" d="M6.725 664.721v-434.054c0-25.065 13.45-48.296 34.847-60.523l375.976-217.027c22.008-12.227 48.296-12.227 70.304 0l375.976 217.027c21.397 12.227 34.847 35.458 34.847 60.523v434.054c0 25.065-13.45 48.296-34.847 60.523l-375.976 217.027c-22.008 12.227-48.296 12.227-70.304 0l-375.365-216.416c-22.008-12.838-35.458-36.069-35.458-61.134z" />
<glyph unicode="&#xe922;" horiz-adv-x="907" d="M631.518 200.1l-27.51 81.92c-1.223 4.279-5.502 7.336-10.393 7.336h-1.834v161.395c0 77.641-62.968 140.609-140.609 140.609s-140.609-62.968-140.609-140.609v-160.783h-1.834c-4.891 0-9.17-3.057-10.393-7.336l-27.51-81.92c-1.223-3.668-0.611-7.336 1.223-9.781 1.834-3.057 5.502-4.891 9.17-4.891h339.907c3.668 0 6.725 1.834 9.17 4.891 1.834 2.445 2.445 6.113 1.223 9.17zM331.959 450.751c0 65.414 53.187 118.601 118.601 118.601s118.601-53.187 118.601-118.601v-160.783h-237.201v160.783zM295.89 208.048l20.174 59.912h268.991l20.174-59.912h-309.34z" />
<glyph unicode="&#xe923;" horiz-adv-x="907" d="M450.56 752.755c-6.113 0-11.004-4.891-11.004-11.004v-66.636c0-6.113 4.891-11.004 11.004-11.004s11.004 4.891 11.004 11.004v66.636c0.611 6.113-4.891 11.004-11.004 11.004z" />
<glyph unicode="&#xe924;" horiz-adv-x="907" d="M458.507 640.267c-1.834 1.834-4.891 3.057-7.947 3.057s-5.502-1.223-7.947-3.057c-1.834-1.834-3.057-4.891-3.057-7.947s1.223-5.502 3.057-7.947c1.834-1.834 4.891-3.057 7.947-3.057s5.502 1.223 7.947 3.057c1.834 1.834 3.057 4.891 3.057 7.947 0.611 3.057-0.611 5.502-3.057 7.947z" />
<glyph unicode="&#xe925;" horiz-adv-x="907" d="M273.27 456.253h-50.741c-6.113 0-11.004-4.891-11.004-11.004s4.891-11.004 11.004-11.004h50.741c6.113 0 11.004 4.891 11.004 11.004s-4.891 11.004-11.004 11.004z" />
<glyph unicode="&#xe926;" horiz-adv-x="907" d="M185.848 453.196c-1.834 1.834-4.891 3.057-7.947 3.057s-5.502-1.223-7.947-3.057c-1.834-1.834-3.057-4.891-3.057-7.947s1.223-5.502 3.057-7.947c1.834-1.834 4.891-3.057 7.947-3.057s5.502 1.223 7.947 3.057c1.834 1.834 3.057 4.891 3.057 7.947 0.611 3.057-0.611 5.502-3.057 7.947z" />
<glyph unicode="&#xe927;" horiz-adv-x="907" d="M375.976 654.328l-15.284 36.069c-2.445 5.502-8.559 8.559-14.672 6.113-5.502-2.445-8.559-8.559-6.113-14.672l15.284-36.069c1.834-4.279 6.113-6.725 10.393-6.725 1.223 0 3.057 0 4.279 0.611 6.113 2.445 8.559 9.17 6.113 14.672z" />
<glyph unicode="&#xe928;" horiz-adv-x="907" d="M250.039 540.619l-36.069 14.672c-5.502 2.445-12.227-0.611-14.672-6.113s0.611-12.227 6.113-14.672l36.069-15.284c1.223-0.611 3.057-0.611 4.279-0.611 4.279 0 8.559 2.445 10.393 6.725 2.445 6.113 0 12.838-6.113 15.284z" />
<glyph unicode="&#xe929;" horiz-adv-x="907" d="M684.093 456.253h-50.741c-6.113 0-11.004-4.891-11.004-11.004s4.891-11.004 11.004-11.004h50.741c6.113 0 11.004 4.891 11.004 11.004s-4.891 11.004-11.004 11.004z" />
<glyph unicode="&#xe92a;" horiz-adv-x="907" d="M731.167 453.196c-1.834 1.834-4.891 3.057-7.947 3.057s-5.502-1.223-7.947-3.057c-1.834-1.834-3.057-4.891-3.057-7.947s1.223-5.502 3.057-7.947c1.834-1.834 4.891-3.057 7.947-3.057s5.502 1.223 7.947 3.057c1.834 1.834 3.057 4.891 3.057 7.947s-1.223 5.502-3.057 7.947z" />
<glyph unicode="&#xe92b;" horiz-adv-x="907" d="M670.032 664.11c-4.279 4.279-11.616 4.279-15.895 0l-54.41-54.41c-4.279-4.279-4.279-11.616 0-15.895 2.445-2.445 4.891-3.057 7.947-3.057s5.502 1.223 7.947 3.057l54.41 54.41c4.279 4.891 4.279 11.616 0 15.895z" />
<glyph unicode="&#xe92c;" horiz-adv-x="907" d="M302.004 609.7l-54.41 54.41c-4.279 4.279-11.616 4.279-15.895 0s-4.279-11.616 0-15.895l54.41-54.41c2.445-2.445 4.891-3.057 7.947-3.057s5.502 1.223 7.947 3.057c4.279 4.891 4.279 11.616 0 15.895z" />
<glyph unicode="&#xe92d;" horiz-adv-x="907" d="M555.1 696.511c-5.502 2.445-12.227-0.611-14.672-6.113l-15.284-36.069c-2.445-5.502 0.611-12.227 6.113-14.672 1.223-0.611 3.057-0.611 4.279-0.611 4.279 0 8.559 2.445 10.393 6.725l15.284 36.069c1.834 6.113-0.611 12.227-6.113 14.672z" />
<glyph unicode="&#xe92e;" horiz-adv-x="907" d="M701.822 549.177c-2.445 5.502-8.559 8.559-14.672 6.113l-36.069-15.284c-5.502-2.445-8.559-8.559-6.113-14.672 1.834-4.279 6.113-6.725 10.393-6.725 1.223 0 3.057 0 4.279 0.611l36.069 15.284c6.113 2.445 8.559 9.17 6.113 14.672z" />
<glyph unicode="&#xe92f;" horiz-adv-x="907" d="M450.56 521.056c-18.34 0-33.013-14.672-33.013-33.013v-53.187c0-18.34 14.672-33.013 33.013-33.013s33.013 14.672 33.013 33.013v53.187c0.611 18.34-14.672 33.013-33.013 33.013zM462.176 434.856c0-6.113-4.891-11.004-11.004-11.004s-11.004 4.891-11.004 11.004v53.187c0 6.113 4.891 11.004 11.004 11.004s11.004-4.891 11.004-11.004v-53.187z" />
<glyph unicode="&#xe930;" horiz-adv-x="907" d="M450.56 379.835c-18.34 0-33.013-14.672-33.013-33.013s14.672-33.013 33.013-33.013c18.34 0 33.013 14.672 33.013 33.013 0.611 17.729-14.672 33.013-33.013 33.013zM450.56 335.207c-6.113 0-11.004 4.891-11.004 11.004s4.891 11.004 11.004 11.004c6.113 0 11.004-4.891 11.004-11.004s-4.891-11.004-11.004-11.004z" />
<glyph unicode="&#xe931;" horiz-adv-x="906" d="M307.017 228.1c0 0 0 0 0 0 6.449 0 11.677 5.228 11.677 11.677 0 0.021 0 0.043 0 0.064v-0.003 281.218h1.651c40.476 6.659 70.977 41.39 70.977 83.244 0 46.56-37.744 84.304-84.304 84.304s-84.304-37.744-84.304-84.304c0-41.854 30.501-76.585 70.488-83.178l0.489-0.067h1.651v-281.218c0 0 0 0 0 0 0-6.461 5.22-11.703 11.673-11.738h0.003zM245.882 604.748c0 33.764 27.371 61.134 61.134 61.134s61.134-27.371 61.134-61.134c0-33.764-27.371-61.134-61.134-61.134v0c-33.658 0.139-60.89 27.456-60.89 61.134 0 0 0 0 0 0.001v0z" />
<glyph unicode="&#xe932;" horiz-adv-x="906" d="M631.090 348.657c-0.035-7.503-6.125-13.572-13.633-13.572-7.529 0-13.633 6.104-13.633 13.633s6.104 13.633 13.633 13.633v0c0 0 0 0 0 0 7.529 0 13.633-6.104 13.633-13.633 0-0.021 0-0.043 0-0.064v0.003z" />
<glyph unicode="&#xe933;" horiz-adv-x="906" d="M467.678 348.657c0-0.018 0-0.040 0-0.061 0-7.529-6.104-13.633-13.633-13.633s-13.633 6.104-13.633 13.633c0 7.529 6.104 13.633 13.633 13.633 0.021 0 0.043 0 0.064 0h-0.003c7.496 0 13.572-6.076 13.572-13.572v0z" />
<glyph unicode="&#xe934;" horiz-adv-x="906" d="M495.188 348.657c0-7.529 6.104-13.633 13.633-13.633v0h54.226c7.126 0.493 12.721 6.394 12.721 13.602s-5.594 13.11-12.678 13.6l-0.043 0.002h-54.471c-7.416-0.103-13.388-6.14-13.388-13.571 0 0 0-0.001 0-0.001v0z" />
<glyph unicode="&#xe935;" horiz-adv-x="906" d="M599.116 228.1h36.681c16.51 0 29.895 13.384 29.895 29.895v24.454h6.113c6.483 0 11.738 5.255 11.738 11.738v210.73c-0.034 26.405-21.361 47.817-47.729 47.99h-199.865c-26.503-0.035-47.982-21.493-48.052-47.984v-210.615c0-6.483 5.255-11.738 11.738-11.738h6.113v-24.454c0-16.51 13.384-29.895 29.895-29.895h36.314c16.484 0.035 29.834 13.406 29.834 29.895 0 0 0 0 0 0v0 24.454h67.248v-24.454c0-0.036 0-0.080 0-0.123 0-16.51 13.384-29.895 29.895-29.895 0.065 0 0.129 0 0.194 0.001h-0.010zM641.91 257.995c0-0.018 0-0.040 0-0.061 0-3.545-2.874-6.419-6.419-6.419-0.022 0-0.043 0-0.065 0h-36.311c-3.411 0.167-6.114 2.974-6.114 6.412 0 0.024 0 0.048 0 0.072v-0.004 24.454h48.907zM660.251 414.926h-112.793v60.095h112.793zM411.312 504.916c0 13.505 10.948 24.454 24.454 24.454v0h200.032c13.505 0 24.454-10.948 24.454-24.454v0-6.48h-248.939zM411.312 475.021h112.793v-60.095h-112.793zM478.56 257.995c0-0.020 0-0.044 0-0.068 0-3.438-2.702-6.244-6.099-6.411l-0.015-0.001h-36.497c-0.018 0-0.040 0-0.061 0-3.545 0-6.419 2.874-6.419 6.419 0 0.022 0 0.043 0 0.065v-0.003 24.454h48.907zM411.312 305.985v85.466h248.939v-85.588z" />
<glyph unicode="&#xe945;" horiz-adv-x="907" d="M6.725 664.721v-434.054c0-25.065 13.45-48.296 34.847-60.523l375.976-217.027c22.008-12.227 48.296-12.227 70.304 0l375.976 217.027c21.397 12.227 34.847 35.458 34.847 60.523v434.054c0 25.065-13.45 48.296-34.847 60.523l-375.976 217.027c-22.008 12.227-48.296 12.227-70.304 0l-375.365-216.416c-22.008-12.838-35.458-36.069-35.458-61.134z" />
<glyph unicode="&#xe946;" horiz-adv-x="907" d="M561.824 439.136h-68.47c-3.668 0-6.113-2.445-6.113-6.113v-83.143c-7.336-3.668-12.838-9.781-15.895-17.729-1.223-3.668-0.611-7.947 1.834-11.004s6.113-5.502 10.393-5.502h9.781c0 0 0 0 0 0h68.47c0 0 0 0 0 0h8.559c4.279 0 7.947 1.834 10.393 5.502 2.445 3.057 3.057 7.336 1.834 11.004-2.445 7.336-7.336 12.838-14.061 16.506v39.737c0 0 0 0 0 0s0 0 0 0v45.239c-0.611 3.057-3.057 5.502-6.725 5.502zM555.711 394.507h-22.008v33.013h22.008v-33.013zM521.476 426.909v-32.401h-22.008v33.013h22.008zM499.467 382.281h22.008v-29.344c-2.445-0.611-4.891-1.223-7.336-2.445-4.279 1.834-8.559 3.057-12.838 3.057-0.611 0-0.611 0-1.223 0v28.733zM570.383 328.482h-86.811c0 0 0 0 0 0 2.445 7.336 9.781 12.227 17.729 12.227 3.668 0 6.725-1.223 9.781-2.445 1.834-1.223 4.279-1.223 6.113 0 3.057 1.834 6.113 2.445 9.781 2.445s6.725-1.223 9.781-2.445c1.834-1.223 4.279-1.223 6.113 0 3.057 1.834 6.113 2.445 9.781 2.445 7.947 0 15.284-4.891 17.729-12.227 0 0 0 0 0 0zM552.654 352.936c-4.279 0-8.559-1.223-12.838-3.057-1.834 0.611-3.668 1.223-6.113 1.834v30.567h22.008v-28.733c-1.223-0.611-1.834-0.611-3.057-0.611z" />
<glyph unicode="&#xe947;" horiz-adv-x="907" d="M453.617 558.347c-20.174 0-37.292-16.506-37.292-37.292s16.506-37.292 37.292-37.292c20.174 0 37.292 16.506 37.292 37.292s-16.506 37.292-37.292 37.292zM453.617 496.602c-13.45 0-24.454 11.004-24.454 24.454s11.004 24.454 24.454 24.454c13.45 0 24.454-11.004 24.454-24.454s-10.393-24.454-24.454-24.454z" />
<glyph unicode="&#xe948;" horiz-adv-x="907" d="M656.583 250.842h-12.227c-1.834 15.895-11.004 29.344-23.842 36.681v201.743l3.057-2.445c11.004-7.947 26.288-5.502 34.235 4.891l3.057 4.279c2.445 3.668 1.834 7.947-1.834 11.004l-91.701 67.859c-2.445 1.834-6.725 1.223-8.559-1.223s-1.223-6.725 1.223-8.559l88.033-64.802v-0.611c-4.279-5.502-11.616-6.725-17.118-2.445l-174.233 128.382c-2.445 1.834-4.891 1.834-7.336 0l-174.233-128.382c-2.445-1.834-6.113-2.445-9.17-2.445-3.057 0.611-6.113 2.445-7.947 4.891v0.611l195.019 144.277 80.086-58.689c2.445-1.834 6.725-1.223 8.559 1.223s1.223 6.725-1.223 8.559l-81.92 60.523c-3.057 2.445-7.336 2.445-10.393 0l-200.521-149.168c-3.668-2.445-4.279-7.336-1.834-11.004l3.057-4.279c3.668-5.502 9.781-8.559 15.895-9.781 1.223 0 2.445 0 3.668 0 4.891 0 10.393 1.834 14.672 4.891l3.057 2.445v-114.321c0-3.668 2.445-6.113 6.113-6.113s6.113 2.445 6.113 6.113v123.491l151.613 111.876 3.668 2.445 155.281-114.321v-205.411c-4.279 1.223-9.17 1.834-14.061 1.834-15.284 0-29.344-6.725-39.126-18.34-3.057-3.668-7.336-4.891-11.004-3.057-3.668 1.223-7.336 1.834-11.004 1.834-15.284 0-27.51-11.004-30.567-25.065h-45.851v15.895c0 5.502-4.279 9.781-9.781 9.781h-1.834v157.115c0 3.668-2.445 6.113-6.113 6.113h-91.090c-3.668 0-6.113-2.445-6.113-6.113v-157.115h-1.834c-5.502 0-9.781-4.279-9.781-9.781v-14.672h-11.004c-2.445 11.004-10.393 20.174-21.397 23.231v72.139c0 3.668-2.445 6.113-6.113 6.113s-6.113-2.445-6.113-6.113v-71.527c-13.45-1.223-25.065-11.616-27.51-25.065h-9.17c-3.668 0-6.113-2.445-6.113-6.113s2.445-6.113 6.113-6.113h407.155c3.668 0 6.113 2.445 6.113 6.113s-2.445 6.725-6.113 6.725zM354.579 426.909h77.641v-151.002h-77.641v151.002zM342.964 263.68h101.483v-12.838h-101.483v12.838zM289.777 263.68c7.947 0 15.284-5.502 17.729-12.838h-14.672c0 0 0 0 0 0h-20.786c2.445 7.336 9.17 12.838 17.729 12.838zM615.011 250.842c0 0 0 0 0 0h-99.649c2.445 7.336 9.781 12.838 17.729 12.838 2.445 0 4.891-0.611 6.725-1.223 8.559-3.668 18.952-0.611 25.065 6.725 7.336 9.17 18.34 14.061 29.956 14.061 18.952 0 34.847-14.061 37.903-32.401h-17.729z" />
</font>
</defs>
</svg>
